<svg width="361" height="70" viewBox="0 0 361 70" fill="none" xmlns="http://www.w3.org/2000/svg">
<g clip-path="url(#clip0_100_4705)">
<path fill-rule="evenodd" clip-rule="evenodd" d="M1.79692 45.9068L63.4556 50.0856C63.8561 50.2048 64.2206 50.422 64.516 50.7175C64.8115 51.0129 65.0287 51.3774 65.1479 51.7779L69.3267 65.8096C69.4813 66.3288 69.7994 66.7841 70.2337 67.1078C70.6679 67.4316 71.1951 67.6065 71.7368 67.6065C72.2784 67.6065 72.8056 67.4316 73.2399 67.1078C73.6741 66.7841 73.9922 66.3288 74.1468 65.8096L78.3256 51.7779C78.4449 51.3774 78.662 51.0129 78.9575 50.7175C79.253 50.422 79.6174 50.2048 80.0179 50.0856L94.0497 45.9068C94.5688 45.7522 95.0241 45.4341 95.3479 44.9998C95.6717 44.5656 95.8466 44.0384 95.8466 43.4967C95.8466 42.955 95.6717 42.4279 95.3479 41.9937C95.0241 41.5594 94.5688 41.2413 94.0497 41.0867L80.0179 36.9079C79.6174 36.7886 79.253 36.5715 78.9575 36.276C78.662 35.9805 78.4449 35.6161 78.3256 35.2156L74.1468 21.1838C73.9922 20.6647 73.6741 20.2094 73.2399 19.8856C72.8056 19.5618 72.2784 19.387 71.7368 19.387C71.1951 19.387 70.6679 19.5618 70.2337 19.8856C69.7994 20.2094 69.4813 20.6647 69.3267 21.1838L65.1479 35.2156C65.0287 35.6161 64.8115 35.9805 64.516 36.276C64.2205 36.5715 63.8561 36.7886 63.4556 36.9079L1.79691 41.0867C1.27777 41.2413 0.822444 41.5594 0.498672 41.9937C0.174901 42.4279 -2.24751e-06 42.9551 0 43.4968C2.24755e-06 44.0384 0.174897 44.5656 0.498672 44.9998C0.822448 45.4341 1.27779 45.7522 1.79692 45.9068Z" fill="white"/>
<path fill-rule="evenodd" clip-rule="evenodd" d="M32.5396 15.8641L40.8295 18.3328C41.0661 18.4033 41.2814 18.5316 41.4559 18.7062C41.6305 18.8807 41.7588 19.096 41.8293 19.3326L44.2981 27.6225C44.3894 27.9292 44.5773 28.1982 44.8339 28.3895C45.0904 28.5808 45.4019 28.6841 45.7219 28.6841C46.0419 28.6841 46.3534 28.5808 46.6099 28.3895C46.8665 28.1982 47.0544 27.9292 47.1458 27.6225L49.6145 19.3326C49.685 19.096 49.8133 18.8807 49.9879 18.7062C50.1624 18.5316 50.3777 18.4033 50.6143 18.3328L58.9042 15.8641C59.2109 15.7727 59.4799 15.5848 59.6712 15.3282C59.8625 15.0717 59.9658 14.7602 59.9658 14.4402C59.9658 14.1202 59.8625 13.8087 59.6712 13.5522C59.4799 13.2956 59.2109 13.1077 58.9042 13.0164L50.6143 10.5475C50.3777 10.4771 50.1624 10.3488 49.9879 10.1743C49.8133 9.99969 49.685 9.78433 49.6145 9.54773L47.1458 1.2579C47.0544 0.9512 46.8665 0.682192 46.6099 0.490906C46.3534 0.29962 46.0419 0.196289 45.7219 0.196289C45.4019 0.196289 45.0904 0.29962 44.8339 0.490906C44.5773 0.682192 44.3894 0.9512 44.2981 1.2579L41.8293 9.54773C41.7588 9.78433 41.6305 9.99969 41.4559 10.1743C41.2814 10.3488 41.0661 10.4771 40.8295 10.5475L32.5396 13.0164C32.2329 13.1077 31.9639 13.2956 31.7726 13.5522C31.5813 13.8087 31.478 14.1202 31.478 14.4402C31.478 14.7602 31.5813 15.0717 31.7726 15.3282C31.9639 15.5848 32.2329 15.7727 32.5396 15.8641Z" fill="white"/>
<path d="M167.357 33.5904C169.401 35.2686 171.046 37.38 172.174 39.772C173.302 42.164 173.884 44.7768 173.878 47.4214V51.3725C173.888 53.7105 173.435 56.0273 172.544 58.1893C171.654 60.3513 170.345 62.3156 168.691 63.9688C167.038 65.6221 165.074 66.9317 162.912 67.8219C160.75 68.7122 158.433 69.1655 156.095 69.1559H127.408V-8.83233e-05H154.119C156.457 -0.00989612 158.774 0.443396 160.936 1.33362C163.098 2.22385 165.062 3.53338 166.715 5.18668C168.369 6.83998 169.678 8.80427 170.568 10.9663C171.459 13.1283 171.912 15.4452 171.902 17.7833V21.7344C171.939 26.1186 170.315 30.3542 167.357 33.5904ZM154.119 29.638C155.16 29.6516 156.194 29.4564 157.159 29.0641C158.124 28.6717 159.001 28.09 159.738 27.3534C160.474 26.6167 161.056 25.74 161.448 24.775C161.841 23.8099 162.036 22.7761 162.022 21.7344V17.7833C162.036 16.7415 161.841 15.7076 161.448 14.7425C161.056 13.7773 160.474 12.9005 159.738 12.1638C159.001 11.427 158.124 10.8452 157.159 10.4527C156.194 10.0602 155.16 9.86488 154.119 9.87833H137.288V29.638H154.119ZM156.095 59.276C157.137 59.2896 158.17 59.0945 159.136 58.7021C160.101 58.3097 160.977 57.7281 161.714 56.9914C162.451 56.2548 163.032 55.3781 163.425 54.4131C163.817 53.448 164.012 52.4142 163.999 51.3725V47.4214C164.012 46.3797 163.817 45.3458 163.425 44.3808C163.032 43.4157 162.451 42.539 161.714 41.8023C160.977 41.0657 160.101 40.4841 159.136 40.0917C158.17 39.6993 157.137 39.5042 156.095 39.5178H137.288V59.276H156.095Z" fill="white"/>
<path d="M225.977 59.2762V69.1561H182.508V59.2762H198.809V33.6501H182.508V23.7703H208.688V59.2762H225.977Z" fill="white"/>
<path d="M308.094 33.6501V23.7703H289.816V5.92749H279.938V23.7703H246.347V5.92749H236.468V23.7703H221.155V33.6501H236.468V51.3723C236.458 53.7103 236.912 56.0272 237.802 58.1891C238.692 60.3511 240.001 62.3154 241.655 63.9687C243.308 65.622 245.272 66.9316 247.434 67.8219C249.596 68.7122 251.913 69.1656 254.251 69.156H264.624V59.2761H254.251C253.209 59.2897 252.175 59.0945 251.21 58.7021C250.245 58.3097 249.368 57.728 248.632 56.9913C247.895 56.2547 247.313 55.378 246.921 54.4129C246.529 53.4478 246.334 52.414 246.347 51.3723V33.6501H279.938V51.3723C279.928 53.7103 280.381 56.0271 281.271 58.1891C282.161 60.351 283.47 62.3153 285.124 63.9686C286.777 65.6219 288.741 66.9315 290.903 67.8218C293.065 68.7122 295.381 69.1656 297.719 69.156H308.094V59.2761H297.719C296.678 59.2897 295.644 59.0945 294.679 58.7021C293.714 58.3097 292.837 57.728 292.1 56.9913C291.364 56.2547 290.782 55.378 290.39 54.4129C289.997 53.4478 289.802 52.414 289.816 51.3723V33.6501H308.094Z" fill="white"/>
<path d="M347.412 69.1561H334.509C329.786 69.12 325.269 67.2214 321.939 63.873C318.609 60.5247 316.735 55.9972 316.725 51.2748V41.5536C316.724 39.2179 317.183 36.9047 318.076 34.7464C318.969 32.5882 320.279 30.6272 321.931 28.9756C323.582 27.3239 325.543 26.0141 327.702 25.1209C329.86 24.2277 332.173 23.7688 334.509 23.7702H342.412C346.967 23.7471 351.356 25.479 354.667 28.6065C357.979 31.734 359.959 36.0167 360.196 40.5655V51.2364H326.605V51.2748C326.611 53.3691 327.446 55.3759 328.927 56.8569C330.408 58.3378 332.414 59.1724 334.509 59.1784H347.412V69.1561ZM350.316 43.3314V41.5536C350.329 40.512 350.134 39.4781 349.742 38.513C349.35 37.548 348.768 36.6713 348.031 35.9346C347.295 35.198 346.418 34.6164 345.453 34.224C344.488 33.8316 343.454 33.6365 342.412 33.6501H334.509C333.469 33.6448 332.439 33.8456 331.478 34.241C330.517 34.6363 329.643 35.2183 328.908 35.9532C328.173 36.6882 327.591 37.5615 327.196 38.5228C326.801 39.4841 326.6 40.5143 326.605 41.5536V43.3314H350.316Z" fill="white"/>
<path d="M203.255 12.301C206.652 12.301 209.406 9.54734 209.406 6.15051C209.406 2.75368 206.652 0 203.255 0C199.858 0 197.105 2.75368 197.105 6.15051C197.105 9.54734 199.858 12.301 203.255 12.301Z" fill="white"/>
</g>
<defs>
<clipPath id="clip0_100_4705">
<rect width="360.196" height="69.156" fill="white"/>
</clipPath>
</defs>
</svg>
